<svg width="28" height="34" viewBox="0 0 28 34" fill="none" xmlns="http://www.w3.org/2000/svg">
<path d="M23.418 17.7191C23.3794 13.5292 26.9367 11.4908 27.0993 11.3959C25.0847 8.53203 21.962 8.14073 20.8647 8.10953C18.242 7.84043 15.698 9.63963 14.362 9.63963C12.9994 9.63963 10.942 8.13553 8.72468 8.17973C5.87135 8.22263 3.20202 9.83333 1.73802 12.3345C-1.28332 17.4344 0.970017 24.9289 3.86468 29.0512C5.31268 31.0701 7.00468 33.3243 9.21935 33.245C11.386 33.1579 12.1954 31.8982 14.81 31.8982C17.4007 31.8982 18.1607 33.245 20.4193 33.1943C22.7447 33.1579 24.2087 31.1663 25.606 29.1292C27.2793 26.8152 27.9514 24.5363 27.978 24.4193C27.9234 24.4011 23.462 22.741 23.418 17.7191Z" fill="#646468"/>
<path d="M19.1514 5.39773C20.3167 3.97683 21.114 2.04373 20.8927 0.0820312C19.206 0.154831 17.0967 1.21953 15.882 2.60923C14.8074 3.83383 13.8474 5.84103 14.0954 7.72863C15.99 7.86643 17.9354 6.79653 19.1514 5.39773Z" fill="#646468"/>
</svg>
