<svg width="65" height="65" viewBox="0 0 65 65" fill="none" xmlns="http://www.w3.org/2000/svg">
<path d="M32.5001 9V23.4616M26 40L32 46L43.5 34.5M9 23.4616H56.0002V52.3848C56.0002 53.3436 55.6193 54.2632 54.9413 54.9413C54.2632 55.6193 53.3436 56.0002 52.3848 56.0002H12.6154C11.6565 56.0002 10.7369 55.6193 10.0589 54.9413C9.38091 54.2632 9 53.3436 9 52.3848V23.4616Z" stroke="white" stroke-width="2.5" stroke-linecap="round" stroke-linejoin="round"/>
<path d="M9 23.4616L14.4231 13.0131C15.0077 11.8355 15.9024 10.8395 17.0108 10.1324C18.1193 9.42529 19.3995 9.03378 20.7139 9H44.2863C45.6315 9.00071 46.9499 9.37668 48.0931 10.0856C49.2364 10.7946 50.1592 11.8084 50.7579 13.0131L56.0002 23.4616" stroke="white" stroke-width="2.5" stroke-linecap="round" stroke-linejoin="round"/>
</svg>
