<svg width="306" height="59" viewBox="0 0 306 59" fill="none" xmlns="http://www.w3.org/2000/svg">
<g clip-path="url(#clip0_1245_6253)">
<path d="M47.9707 22.4971C47.9707 22.4971 59.6994 15.5446 67.1459 25.3689C67.1459 25.3689 69.077 27.6021 67.5926 29.7403C66.132 31.8424 62.8715 31.3957 61.2484 29.1673C59.7839 27.1574 56.2555 24.6058 47.9707 22.4971Z" fill="#8870FF"/>
<path d="M47.9611 22.4971C47.9611 22.4971 55.0941 10.949 45.9227 4.15526C45.9227 4.15526 42.896 1.43454 40.162 2.4029C37.6189 3.30284 37.5524 6.84842 39.8921 8.1893C42.456 9.65942 45.9683 13.3314 47.9611 22.4971Z" fill="#8870FF"/>
<path d="M66.8906 25.9733C66.8906 25.9733 66.9543 26.055 67.0379 26.1681C67.2822 25.9495 67.5188 25.7138 67.7336 25.4382C69.714 22.9009 68.127 20.9376 68.127 20.9376C62.2484 12.0941 48.5659 21.7045 48.5659 21.7045C49.2245 21.7501 49.8403 21.809 50.4361 21.8717C54.3485 20.4444 61.6697 19.0855 66.8906 25.9733Z" fill="#8870FF"/>
<path d="M45.9237 4.15525C52.9987 9.39523 50.3721 17.4614 48.8012 20.8768C48.8041 20.9538 48.8098 21.0231 48.8126 21.1001C48.8126 21.1001 58.577 7.57159 50.2903 2.24989C50.2903 2.24989 47.6494 -0.00898075 44.5895 1.54667C44.0639 1.8137 43.6106 2.15961 43.2324 2.55019C44.7634 3.11467 45.9237 4.15525 45.9237 4.15525Z" fill="#A4E869"/>
<path d="M62.9511 6.64886C59.4853 4.40329 55.0863 7.79398 55.0863 7.79398C54.3565 8.66826 53.6941 9.60906 53.0831 10.5755C52.4768 14.9935 49.5983 19.7688 48.1672 21.9164C48.0826 22.2148 48.0113 22.4762 47.9619 22.6643C49.6202 21.5506 54.4506 18.5372 59.1983 17.757C60.3767 16.9758 61.4999 16.1177 62.4778 15.1864C67.7187 10.1963 62.9511 6.64886 62.9511 6.64886Z" fill="#659C35"/>
<path d="M47.9707 22.4971C47.9707 22.4971 59.6994 15.5446 67.1459 25.3689C67.1459 25.3689 69.077 27.6021 67.5926 29.7403C66.132 31.8424 62.8715 31.3957 61.2484 29.1673C59.7839 27.1574 56.2555 24.6058 47.9707 22.4971Z" fill="#A4E869"/>
<path d="M48.6175 21.4451C48.3505 21.9649 48.1689 22.2595 48.1689 22.2595C48.1689 22.2595 48.6137 21.9972 49.3777 21.6484C49.1297 21.58 48.8798 21.5125 48.6175 21.4451Z" fill="#F2681C"/>
<path d="M54.7309 27.7038C55.131 26.59 55.1063 25.4858 54.8564 24.4452C53.0707 23.6954 50.8784 22.9579 48.1691 22.269C47.5124 19.2499 46.6904 16.837 45.7924 14.8927C44.5541 14.4622 43.1999 14.3092 41.8296 14.8015C37.5295 16.3467 18.6203 43.5529 15.0842 53.0389C14.7516 53.9312 15.452 54.6306 16.3434 54.298C25.8293 50.7619 53.1857 32.0029 54.7309 27.7038Z" fill="#ED8F20"/>
<path d="M22.8269 45.3509C22.1863 45.0449 21.5639 44.6715 20.9766 44.241C20.5528 43.9293 19.9588 44.0224 19.649 44.4453C19.3392 44.8682 19.4305 45.4631 19.8534 45.7729C20.5357 46.2737 21.2608 46.7089 22.0077 47.0653C22.1398 47.128 22.2795 47.1584 22.4173 47.1584C22.7717 47.1584 23.1119 46.9589 23.2754 46.6177C23.5006 46.1444 23.3001 45.5762 22.8269 45.3509Z" fill="#DD7017"/>
<path d="M52.2145 27.2638C50.2702 26.5226 48.4655 25.1903 46.8529 23.3039C46.5117 22.9048 45.9121 22.8582 45.5129 23.1994C45.1138 23.5405 45.0672 24.1402 45.4084 24.5393C47.2301 26.6699 49.2923 28.1847 51.5379 29.0409C51.6491 29.0827 51.7631 29.1036 51.8762 29.1036C52.2591 29.1036 52.6193 28.8698 52.7647 28.4907C52.951 28.0003 52.7048 27.451 52.2145 27.2638Z" fill="#DD7017"/>
<path d="M36.5924 19.7792C36.9621 19.8752 37.2586 20.1859 37.3032 20.5907C37.4733 22.1416 38.2745 24.1515 39.6838 25.1446C40.1123 25.4468 40.215 26.0398 39.9118 26.4693C39.7275 26.7316 39.4329 26.8713 39.1345 26.8713C38.9454 26.8713 38.7544 26.8152 38.5871 26.6974C36.6855 25.3565 35.74 22.9466 35.4663 21.141" fill="#DD7017"/>
<path d="M38.5871 26.6974C38.7534 26.8152 38.9444 26.8713 39.1345 26.8713C39.4329 26.8713 39.7275 26.7316 39.9118 26.4693C40.214 26.0398 40.1123 25.4478 39.6838 25.1446C38.2754 24.1506 37.4733 22.1407 37.3032 20.5907C37.2586 20.1869 36.9621 19.8752 36.5924 19.7792C36.2266 20.2135 35.8521 20.6639 35.4663 21.14C35.74 22.9466 36.6855 25.3565 38.5871 26.6974Z" fill="#DD7017"/>
<path d="M43.8397 37.4929C42.0436 37.2021 39.6878 36.2556 38.3679 34.3844C38.0657 33.9559 38.1683 33.3629 38.5969 33.0597C39.0245 32.7575 39.6185 32.8602 39.9216 33.2887C40.9147 34.6961 42.9246 35.4992 44.4755 35.6693C44.8917 35.7149 45.2034 36.0256 45.2889 36.4124" fill="#DD7017"/>
<path d="M44.4766 35.6597C42.9248 35.4896 40.9149 34.6876 39.9228 33.2792C39.6206 32.8506 39.0257 32.747 38.5981 33.0502C38.1685 33.3524 38.0659 33.9454 38.369 34.3749C39.689 36.2461 42.0448 37.1926 43.8409 37.4833C44.3341 37.1194 44.8178 36.7602 45.2901 36.4038C45.2046 36.0161 44.8919 35.7053 44.4766 35.6597Z" fill="#DD7017"/>
<path d="M29.0229 29.7213C29.4021 29.8106 29.7071 30.1242 29.7527 30.5347C29.8592 31.5088 30.3562 32.767 31.2248 33.3809C31.6533 33.6831 31.756 34.2761 31.4528 34.7056C31.2675 34.9679 30.9739 35.1076 30.6755 35.1076C30.4864 35.1076 30.2954 35.0515 30.1281 34.9337C28.8661 34.0432 28.1895 32.5009 27.9434 31.2607" fill="#DD7017"/>
<path d="M30.1286 34.9337C30.2949 35.0515 30.4859 35.1076 30.676 35.1076C30.9744 35.1076 31.268 34.9679 31.4533 34.7056C31.7555 34.277 31.6538 33.684 31.2252 33.3809C30.3557 32.767 29.8597 31.5097 29.7532 30.5347C29.7086 30.1232 29.4035 29.8096 29.0234 29.7213C28.6632 30.2297 28.304 30.7428 27.9438 31.2607C28.19 32.5009 28.8666 34.0432 30.1286 34.9337Z" fill="#DD7017"/>
<path d="M32.1282 45.5315C30.8387 45.3633 29.0454 44.6876 28.0562 43.284C27.754 42.8545 27.8557 42.2624 28.2842 41.9593C28.7138 41.6552 29.3068 41.7597 29.609 42.1874C30.2229 43.0569 31.4801 43.5529 32.4542 43.6594C32.9759 43.7164 33.3522 44.1858 33.2952 44.7076C33.2923 44.737 33.2762 44.7617 33.2705 44.7902" fill="#DD7017"/>
<path d="M32.4541 43.6604C31.48 43.5539 30.2218 43.0569 29.6089 42.1883C29.3067 41.7598 28.7147 41.6562 28.2842 41.9603C27.8556 42.2625 27.753 42.8555 28.0561 43.285C29.0463 44.6886 30.8386 45.3643 32.1282 45.5325C32.5083 45.2882 32.8893 45.0402 33.2704 44.7922C33.2761 44.7637 33.2923 44.739 33.2951 44.7095C33.3531 44.1878 32.9758 43.7174 32.4541 43.6604Z" fill="#DD7017"/>
<path d="M281.635 19.5206C280.521 19.5206 279.647 19.8769 279.015 20.5895C278.383 21.2906 278.021 22.2905 277.929 23.5893H285.308C285.285 22.2905 284.946 21.2906 284.29 20.5895C283.635 19.8769 282.75 19.5206 281.635 19.5206ZM282.377 35.7608C279.274 35.7608 276.848 34.9045 275.101 33.192C273.354 31.4795 272.481 29.0544 272.481 25.9167C272.481 22.687 273.285 20.193 274.895 18.4345C276.515 16.6645 278.751 15.7795 281.601 15.7795C284.325 15.7795 286.445 16.5553 287.963 18.1069C289.48 19.6585 290.238 21.802 290.238 24.5375V27.089H277.808C277.866 28.5831 278.308 29.7497 279.136 30.5887C279.963 31.4277 281.124 31.8473 282.618 31.8473C283.779 31.8473 284.877 31.7266 285.911 31.4852C286.945 31.2439 288.026 30.8588 289.152 30.3301V34.3988C288.233 34.8585 287.25 35.1976 286.204 35.416C285.158 35.6458 283.882 35.7608 282.377 35.7608Z" fill="white"/>
<path d="M270.962 29.6922C270.962 31.6691 270.273 33.1747 268.894 34.2091C267.526 35.2436 265.474 35.7608 262.739 35.7608C261.337 35.7608 260.141 35.6631 259.153 35.4677C258.164 35.2838 257.239 35.0079 256.377 34.6401V30.2956C257.354 30.7554 258.452 31.1404 259.67 31.4507C260.9 31.7611 261.98 31.9162 262.911 31.9162C264.819 31.9162 265.773 31.3645 265.773 30.2612C265.773 29.8474 265.647 29.5141 265.394 29.2612C265.141 28.9969 264.704 28.7038 264.084 28.382C263.463 28.0487 262.635 27.6637 261.601 27.2269C260.118 26.6063 259.026 26.0316 258.325 25.5029C257.636 24.9742 257.13 24.3708 256.808 23.6927C256.498 23.0031 256.343 22.1583 256.343 21.1584C256.343 19.4459 257.004 18.1241 258.325 17.1932C259.659 16.2507 261.544 15.7795 263.98 15.7795C266.302 15.7795 268.56 16.2852 270.755 17.2966L269.169 21.0894C268.204 20.6757 267.302 20.3366 266.463 20.0723C265.624 19.8079 264.767 19.6758 263.894 19.6758C262.342 19.6758 261.567 20.0953 261.567 20.9343C261.567 21.4055 261.814 21.8135 262.308 22.1583C262.814 22.5031 263.911 23.0146 265.601 23.6927C267.106 24.3018 268.21 24.8708 268.911 25.3995C269.612 25.9282 270.129 26.5373 270.462 27.2269C270.796 27.9165 270.962 28.7383 270.962 29.6922Z" fill="white"/>
<path d="M249.376 35.416L248.669 32.9506H248.394C247.83 33.8471 247.032 34.5425 245.997 35.0367C244.963 35.5194 243.785 35.7608 242.463 35.7608C240.199 35.7608 238.492 35.1574 237.343 33.9505C236.193 32.7323 235.619 30.9853 235.619 28.7096V16.1415H240.877V27.3993C240.877 28.79 241.124 29.8359 241.618 30.537C242.112 31.2266 242.9 31.5714 243.98 31.5714C245.451 31.5714 246.514 31.0829 247.17 30.106C247.825 29.1176 248.152 27.4855 248.152 25.2098V16.1415H253.41V35.416H249.376Z" fill="white"/>
<path d="M219.464 25.7443C219.464 27.6522 219.774 29.0946 220.395 30.0715C221.027 31.0485 222.05 31.5369 223.463 31.5369C224.866 31.5369 225.871 31.0542 226.48 30.0888C227.101 29.1118 227.411 27.6637 227.411 25.7443C227.411 23.8364 227.101 22.4054 226.48 21.4515C225.86 20.4975 224.843 20.0206 223.429 20.0206C222.027 20.0206 221.015 20.4975 220.395 21.4515C219.774 22.3939 219.464 23.8249 219.464 25.7443ZM232.79 25.7443C232.79 28.882 231.963 31.3358 230.308 33.1058C228.653 34.8758 226.348 35.7608 223.394 35.7608C221.544 35.7608 219.912 35.3585 218.498 34.5539C217.085 33.7379 215.998 32.5713 215.24 31.0542C214.481 29.5371 214.102 27.7671 214.102 25.7443C214.102 22.5951 214.924 20.147 216.567 18.4C218.211 16.653 220.521 15.7795 223.498 15.7795C225.348 15.7795 226.98 16.1818 228.394 16.9863C229.808 17.7908 230.894 18.9459 231.652 20.4516C232.411 21.9572 232.79 23.7214 232.79 25.7443Z" fill="white"/>
<path d="M210.721 35.416H205.394V24.5375H195.412V35.416H190.068V10.2109H195.412V20.0895H205.394V10.2109H210.721V35.416Z" fill="white"/>
<path d="M177.019 29.6922C177.019 31.6691 176.329 33.1747 174.95 34.2091C173.582 35.2436 171.53 35.7608 168.795 35.7608C167.393 35.7608 166.197 35.6631 165.209 35.4677C164.221 35.2838 163.295 35.0079 162.433 34.6401V30.2956C163.41 30.7554 164.508 31.1404 165.726 31.4507C166.956 31.7611 168.036 31.9162 168.967 31.9162C170.875 31.9162 171.829 31.3645 171.829 30.2612C171.829 29.8474 171.703 29.5141 171.45 29.2612C171.197 28.9969 170.76 28.7038 170.14 28.382C169.519 28.0487 168.692 27.6637 167.657 27.2269C166.175 26.6063 165.083 26.0316 164.382 25.5029C163.692 24.9742 163.186 24.3708 162.864 23.6927C162.554 23.0031 162.399 22.1583 162.399 21.1584C162.399 19.4459 163.06 18.1241 164.382 17.1932C165.715 16.2507 167.6 15.7795 170.036 15.7795C172.358 15.7795 174.616 16.2852 176.812 17.2966L175.226 21.0894C174.26 20.6757 173.358 20.3366 172.519 20.0723C171.68 19.8079 170.824 19.6758 169.95 19.6758C168.398 19.6758 167.623 20.0953 167.623 20.9343C167.623 21.4055 167.87 21.8135 168.364 22.1583C168.87 22.5031 169.967 23.0146 171.657 23.6927C173.162 24.3018 174.266 24.8708 174.967 25.3995C175.668 25.9282 176.185 26.5373 176.519 27.2269C176.852 27.9165 177.019 28.7383 177.019 29.6922Z" fill="white"/>
<path d="M162.529 14.021C161.805 13.5153 160.742 12.6993 159.34 11.5729C157.938 10.4351 156.846 9.48687 156.064 8.7283V8.36626H161.961C162.685 9.52709 164.035 11.2568 166.012 13.5555V14.021H162.529Z" fill="white"/>
<path d="M152.949 20.0895H148.397V35.416H143.139V20.0895H140.243V17.5552L143.139 16.1415V14.7278C143.139 12.5326 143.679 10.9293 144.76 9.91787C145.84 8.90645 147.57 8.40074 149.949 8.40074C151.765 8.40074 153.38 8.67083 154.793 9.21102L153.449 13.0728C152.391 12.7395 151.414 12.5728 150.518 12.5728C149.771 12.5728 149.231 12.797 148.897 13.2452C148.564 13.682 148.397 14.2451 148.397 14.9347V16.1415H152.949V20.0895Z" fill="white"/>
<path d="M130.828 19.5206C129.713 19.5206 128.84 19.8769 128.208 20.5895C127.576 21.2906 127.214 22.2905 127.122 23.5893H134.5C134.477 22.2905 134.138 21.2906 133.483 20.5895C132.828 19.8769 131.943 19.5206 130.828 19.5206ZM131.57 35.7608C128.466 35.7608 126.041 34.9045 124.294 33.192C122.547 31.4795 121.674 29.0544 121.674 25.9167C121.674 22.687 122.478 20.193 124.087 18.4345C125.708 16.6645 127.943 15.7795 130.794 15.7795C133.518 15.7795 135.638 16.5553 137.155 18.1069C138.673 19.6585 139.431 21.802 139.431 24.5375V27.089H127.001C127.058 28.5831 127.501 29.7497 128.329 30.5887C129.156 31.4277 130.317 31.8473 131.811 31.8473C132.972 31.8473 134.069 31.7266 135.104 31.4852C136.138 31.2439 137.219 30.8588 138.345 30.3301V34.3988C137.426 34.8585 136.443 35.1976 135.397 35.416C134.351 35.6458 133.075 35.7608 131.57 35.7608Z" fill="white"/>
<path d="M118.845 35.416H113.587V24.1582C113.587 21.3768 112.552 19.9861 110.484 19.9861C109.012 19.9861 107.949 20.486 107.294 21.486C106.639 22.4859 106.311 24.1065 106.311 26.3477V35.416H101.053V8.59038H106.311V14.0555C106.311 14.4807 106.271 15.4807 106.191 17.0553L106.07 18.6069H106.346C107.518 16.722 109.38 15.7795 111.932 15.7795C114.196 15.7795 115.914 16.3886 117.087 17.6069C118.259 18.8252 118.845 20.5722 118.845 22.8479V35.416Z" fill="white"/>
<path d="M91.0699 14.2968C89.0585 14.2968 87.5012 15.0554 86.3978 16.5725C85.2944 18.0782 84.7428 20.1815 84.7428 22.8824C84.7428 28.5027 86.8518 31.3128 91.0699 31.3128C92.8398 31.3128 94.9834 30.8703 97.5004 29.9853V34.4678C95.4316 35.3298 93.1214 35.7608 90.5699 35.7608C86.9035 35.7608 84.0991 34.6516 82.1567 32.4334C80.2144 30.2037 79.2432 27.0085 79.2432 22.8479C79.2432 20.2274 79.7201 17.9345 80.6741 15.9691C81.628 13.9923 82.9958 12.4809 84.7772 11.435C86.5702 10.3776 88.6677 9.84891 91.0699 9.84891C93.518 9.84891 95.9775 10.4408 98.4486 11.6246L96.7246 15.9691C95.7822 15.5209 94.8339 15.1301 93.88 14.7968C92.926 14.4635 91.9893 14.2968 91.0699 14.2968Z" fill="white"/>
<path d="M85.5048 42.7519V52.6854H86.4703V56.7282H85.3087V53.7791H80.2326V56.7282H79.071V52.6854H79.7348C80.0164 51.8557 80.2577 51.0437 80.4589 50.2492C80.665 49.4497 80.8335 48.6477 80.9642 47.8431C81.1 47.0386 81.2031 46.2164 81.2735 45.3767C81.3438 44.537 81.3866 43.662 81.4017 42.7519H85.5048ZM84.3056 43.8229H82.5255C82.4953 44.6375 82.44 45.432 82.3596 46.2064C82.2842 46.9807 82.1811 47.7375 82.0503 48.4767C81.9246 49.2108 81.7738 49.9299 81.5978 50.6339C81.4218 51.3328 81.2207 52.0167 80.9944 52.6854H84.3056V43.8229ZM92.9116 49.6307C92.9116 50.2844 92.8563 50.8752 92.7457 51.4032C92.635 51.9312 92.4666 52.3837 92.2403 52.7608C92.014 53.138 91.7274 53.4271 91.3805 53.6282C91.0335 53.8294 90.6237 53.9299 90.151 53.9299C89.6985 53.9299 89.3012 53.8294 88.9593 53.6282C88.6174 53.4271 88.3333 53.1405 88.107 52.7684C87.8807 52.3913 87.7098 51.9387 87.5941 51.4107C87.4784 50.8777 87.4206 50.2844 87.4206 49.6307C87.4206 48.7155 87.5187 47.9412 87.7148 47.3076C87.9109 46.669 88.2126 46.1838 88.6199 45.8519C89.0272 45.515 89.5451 45.3465 90.1736 45.3465C90.762 45.3465 91.2598 45.51 91.6671 45.8368C92.0744 46.1586 92.3836 46.6388 92.5948 47.2774C92.806 47.911 92.9116 48.6954 92.9116 49.6307ZM88.6048 49.6307C88.6048 50.3498 88.6601 50.9532 88.7707 51.4409C88.8814 51.9287 89.0523 52.2957 89.2836 52.5421C89.52 52.7885 89.8191 52.9117 90.1812 52.9117C90.5382 52.9117 90.8298 52.791 91.0561 52.5497C91.2874 52.3083 91.4584 51.9463 91.569 51.4635C91.6796 50.9758 91.735 50.3648 91.735 49.6307C91.735 48.9116 91.6796 48.3108 91.569 47.828C91.4584 47.3403 91.2874 46.9757 91.0561 46.7344C90.8298 46.488 90.5357 46.3648 90.1736 46.3648C89.6205 46.3648 89.2208 46.6388 88.9744 47.1869C88.728 47.73 88.6048 48.5446 88.6048 49.6307ZM101.193 45.4974V53.7791H100.077V49.2083C100.077 48.972 100.085 48.6703 100.1 48.3032C100.12 47.9311 100.145 47.5037 100.175 47.021H100.115L98.3875 53.7791H97.3541L95.6495 47.021H95.5816C95.6068 47.4434 95.6269 47.8507 95.642 48.2429C95.6621 48.6301 95.6722 48.9418 95.6722 49.1781V53.7791H94.5785V45.4974H96.2303L97.8821 52.1424L99.5566 45.4974H101.193ZM105.425 45.3465C106.189 45.3465 106.735 45.5904 107.061 46.0782C107.388 46.5659 107.552 47.2724 107.552 48.1976V53.7791H106.669L106.496 52.6025H106.466C106.335 52.884 106.179 53.1254 105.998 53.3265C105.817 53.5226 105.611 53.6735 105.379 53.7791C105.148 53.8797 104.882 53.9299 104.58 53.9299C104.152 53.9299 103.803 53.8168 103.531 53.5905C103.26 53.3643 103.059 53.0676 102.928 52.7005C102.797 52.3284 102.732 51.9287 102.732 51.5012C102.732 50.6816 102.968 50.0455 103.441 49.593C103.914 49.1404 104.585 48.894 105.455 48.8538L106.398 48.7935V48.2278C106.398 47.564 106.307 47.0788 106.126 46.7721C105.945 46.4653 105.653 46.312 105.251 46.312C105.02 46.312 104.776 46.3522 104.52 46.4327C104.268 46.5131 103.994 46.6413 103.697 46.8173L103.328 45.9424C103.64 45.7413 103.971 45.5929 104.323 45.4974C104.68 45.3968 105.048 45.3465 105.425 45.3465ZM106.413 49.6458L105.643 49.6986C105.06 49.7338 104.625 49.8997 104.339 50.1964C104.057 50.488 103.916 50.9129 103.916 51.4711C103.916 51.989 104.009 52.3712 104.195 52.6175C104.381 52.8639 104.638 52.9871 104.965 52.9871C105.422 52.9871 105.777 52.7659 106.028 52.3234C106.285 51.8809 106.413 51.2699 106.413 50.4905V49.6458ZM117.018 47.5339C117.018 48.0216 116.919 48.4214 116.723 48.7331C116.527 49.0449 116.223 49.2561 115.811 49.3667V49.427C116.268 49.5075 116.62 49.7162 116.867 50.0531C117.113 50.39 117.236 50.8199 117.236 51.3429C117.236 51.8557 117.141 52.2957 116.95 52.6628C116.764 53.0248 116.487 53.3014 116.12 53.4925C115.753 53.6836 115.295 53.7791 114.747 53.7791H112.424V45.4974H114.627C115.155 45.4974 115.595 45.5753 115.947 45.7312C116.304 45.8871 116.57 46.1159 116.746 46.4176C116.927 46.7193 117.018 47.0914 117.018 47.5339ZM116.067 51.2523C116.067 50.7596 115.954 50.4101 115.728 50.2039C115.501 49.9927 115.17 49.8871 114.732 49.8871H113.586V52.8438H114.694C115.167 52.8438 115.514 52.7156 115.735 52.4591C115.957 52.2027 116.067 51.8004 116.067 51.2523ZM115.848 47.6319C115.848 47.2447 115.743 46.9481 115.532 46.7419C115.32 46.5357 114.999 46.4327 114.566 46.4327H113.586V48.9745H114.702C115.104 48.9745 115.396 48.8664 115.577 48.6502C115.758 48.4289 115.848 48.0895 115.848 47.6319ZM122.267 45.4974H123.542L121.158 49.4044L123.73 53.7791H122.418L120.012 49.4798V53.7791H118.85V45.4974H120.012V49.412L122.267 45.4974ZM123.874 45.4974H125.073L126.242 50.3397C126.287 50.5509 126.33 50.757 126.37 50.9582C126.416 51.1593 126.456 51.3605 126.491 51.5616C126.531 51.7577 126.564 51.9563 126.589 52.1574H126.649C126.69 51.8658 126.74 51.5716 126.8 51.275C126.861 50.9733 126.931 50.659 127.011 50.3322L128.15 45.4974H129.342L126.883 55.1066C126.737 55.6597 126.566 56.1122 126.37 56.4642C126.174 56.8162 125.943 57.0752 125.676 57.2411C125.415 57.4071 125.103 57.49 124.741 57.49C124.62 57.49 124.5 57.4774 124.379 57.4523C124.258 57.4272 124.13 57.397 123.994 57.3618V56.3285C124.09 56.3637 124.188 56.3913 124.289 56.4114C124.394 56.4316 124.495 56.4416 124.59 56.4416C124.781 56.4416 124.945 56.3913 125.081 56.2908C125.216 56.1952 125.337 56.0343 125.443 55.808C125.548 55.5818 125.651 55.2725 125.752 54.8803L126.046 53.7188L123.874 45.4974ZM132.812 53.9299C132.203 53.9299 131.695 53.7715 131.288 53.4548C130.886 53.138 130.584 52.6653 130.383 52.0368C130.182 51.4082 130.081 50.6288 130.081 49.6986C130.081 48.7884 130.182 48.009 130.383 47.3604C130.589 46.7117 130.898 46.2139 131.311 45.867C131.723 45.52 132.238 45.3465 132.857 45.3465C133.169 45.3465 133.448 45.3792 133.694 45.4446C133.946 45.51 134.179 45.603 134.396 45.7237L134.026 46.6816C133.84 46.581 133.654 46.5056 133.468 46.4553C133.287 46.405 133.108 46.3799 132.932 46.3799C132.57 46.3799 132.266 46.5056 132.02 46.757C131.773 47.0034 131.585 47.3704 131.454 47.8582C131.328 48.3459 131.265 48.9544 131.265 49.6835C131.265 50.3925 131.326 50.9858 131.446 51.4635C131.572 51.9412 131.758 52.3033 132.005 52.5497C132.256 52.791 132.568 52.9117 132.94 52.9117C133.161 52.9117 133.385 52.8815 133.611 52.8212C133.842 52.7558 134.074 52.6628 134.305 52.5421V53.5226C134.094 53.6534 133.847 53.7539 133.566 53.8243C133.289 53.8947 133.038 53.9299 132.812 53.9299ZM136.892 45.4974V48.9745H139.577V45.4974H140.739V53.7791H139.577V49.9777H136.892V53.7791H135.731V45.4974H136.892ZM145.038 45.3616C145.601 45.3616 146.064 45.525 146.426 45.8519C146.793 46.1787 147.065 46.6187 147.24 47.1718C147.422 47.7249 147.512 48.3409 147.512 49.0197V49.8419H143.567C143.577 50.8727 143.736 51.6471 144.042 52.165C144.354 52.6829 144.822 52.9419 145.445 52.9419C145.742 52.9419 146.034 52.8966 146.32 52.8061C146.607 52.7156 146.904 52.5698 147.21 52.3686V53.4095C146.924 53.5855 146.625 53.7162 146.313 53.8017C146.001 53.8872 145.669 53.9299 145.317 53.9299C144.628 53.9299 144.07 53.7464 143.643 53.3793C143.215 53.0072 142.904 52.5019 142.707 51.8633C142.516 51.2197 142.421 50.4931 142.421 49.6835C142.421 48.7583 142.519 47.9739 142.715 47.3302C142.911 46.6866 143.203 46.1988 143.59 45.867C143.982 45.5301 144.465 45.3616 145.038 45.3616ZM145.038 46.312C144.601 46.312 144.259 46.5257 144.012 46.9531C143.766 47.3755 143.623 48.0292 143.582 48.9142H146.426C146.426 48.4465 146.376 48.0166 146.275 47.6244C146.18 47.2271 146.029 46.9104 145.822 46.674C145.621 46.4327 145.36 46.312 145.038 46.312ZM151.434 45.3616C151.997 45.3616 152.46 45.525 152.822 45.8519C153.189 46.1787 153.461 46.6187 153.637 47.1718C153.818 47.7249 153.908 48.3409 153.908 49.0197V49.8419H149.963C149.973 50.8727 150.132 51.6471 150.439 52.165C150.75 52.6829 151.218 52.9419 151.841 52.9419C152.138 52.9419 152.43 52.8966 152.716 52.8061C153.003 52.7156 153.3 52.5698 153.606 52.3686V53.4095C153.32 53.5855 153.021 53.7162 152.709 53.8017C152.397 53.8872 152.065 53.9299 151.713 53.9299C151.024 53.9299 150.466 53.7464 150.039 53.3793C149.611 53.0072 149.3 52.5019 149.104 51.8633C148.912 51.2197 148.817 50.4931 148.817 49.6835C148.817 48.7583 148.915 47.9739 149.111 47.3302C149.307 46.6866 149.599 46.1988 149.986 45.867C150.378 45.5301 150.861 45.3616 151.434 45.3616ZM151.434 46.312C150.997 46.312 150.655 46.5257 150.408 46.9531C150.162 47.3755 150.019 48.0292 149.978 48.9142H152.822C152.822 48.4465 152.772 48.0166 152.671 47.6244C152.576 47.2271 152.425 46.9104 152.219 46.674C152.017 46.4327 151.756 46.312 151.434 46.312ZM156.759 50.7244H155.884L155.613 42.7519H157.016L156.759 50.7244ZM155.545 52.972C155.545 52.6653 155.61 52.4315 155.741 52.2706C155.872 52.1097 156.068 52.0292 156.329 52.0292C156.571 52.0292 156.762 52.1046 156.902 52.2555C157.043 52.4013 157.114 52.6402 157.114 52.972C157.114 53.2939 157.038 53.5302 156.887 53.681C156.742 53.8319 156.556 53.9073 156.329 53.9073C156.073 53.9073 155.877 53.8294 155.741 53.6735C155.61 53.5126 155.545 53.2788 155.545 52.972Z" fill="white"/>
</g>
<defs>
<clipPath id="clip0_1245_6253">
<rect width="306" height="58" fill="white" transform="translate(0 0.5)"/>
</clipPath>
</defs>
</svg>
