<svg width="67" height="22" viewBox="0 0 67 22" fill="none" xmlns="http://www.w3.org/2000/svg">
<g clip-path="url(#clip0_1245_6243)">
<path fill-rule="evenodd" clip-rule="evenodd" d="M15.833 3.16679C15.9114 3.24506 15.9653 3.34441 15.9882 3.45275C16.0112 3.5611 16.0021 3.67378 15.9622 3.77707L10.2479 18.6342C10.2075 18.7393 10.1368 18.8302 10.0449 18.8953C9.95302 18.9604 9.84391 18.9969 9.73131 19.0002C9.61872 19.0035 9.50766 18.9735 9.4121 18.9138C9.31653 18.8542 9.24072 18.7677 9.19419 18.6651L6.80448 13.4079L10.3199 9.89136C10.4713 9.72887 10.5537 9.51396 10.5498 9.2919C10.5459 9.06985 10.4559 8.85798 10.2989 8.70093C10.1419 8.54389 9.92999 8.45393 9.70793 8.45002C9.48587 8.4461 9.27096 8.52852 9.10848 8.67993L5.59191 12.1954L0.334762 9.80679C0.231867 9.76032 0.145044 9.68441 0.0852508 9.58864C0.0254578 9.49287 -0.00462542 9.38153 -0.001202 9.26868C0.00222141 9.15583 0.038998 9.04652 0.104486 8.95456C0.169974 8.86259 0.261239 8.79208 0.366762 8.75193L15.2239 3.03765C15.3271 2.99796 15.4395 2.98904 15.5476 3.01196C15.6557 3.03488 15.7549 3.08866 15.833 3.16679Z" fill="#646468"/>
</g>
<path d="M26.584 17H24.536V7.304H21.256V5.576H29.864V7.304H26.584V17ZM37.44 12.648C37.44 13.3733 37.344 14.0133 37.152 14.568C36.96 15.1227 36.6827 15.5973 36.32 15.992C35.968 16.376 35.5307 16.6693 35.008 16.872C34.496 17.064 33.9253 17.16 33.296 17.16C32.6987 17.16 32.1493 17.064 31.648 16.872C31.1467 16.6693 30.7093 16.376 30.336 15.992C29.9733 15.5973 29.6907 15.1227 29.488 14.568C29.2853 14.0133 29.184 13.3733 29.184 12.648C29.184 11.688 29.3493 10.8773 29.68 10.216C30.0107 9.544 30.4853 9.03733 31.104 8.696C31.7333 8.344 32.4747 8.168 33.328 8.168C34.1387 8.168 34.848 8.344 35.456 8.696C36.0747 9.03733 36.56 9.544 36.912 10.216C37.264 10.8773 37.44 11.688 37.44 12.648ZM31.248 12.648C31.248 13.256 31.3173 13.7787 31.456 14.216C31.6053 14.6427 31.8293 14.968 32.128 15.192C32.4373 15.416 32.832 15.528 33.312 15.528C33.8027 15.528 34.1973 15.416 34.496 15.192C34.8053 14.968 35.0293 14.6427 35.168 14.216C35.3067 13.7787 35.376 13.256 35.376 12.648C35.376 12.0293 35.3013 11.512 35.152 11.096C35.0133 10.6693 34.7893 10.3493 34.48 10.136C34.1813 9.912 33.792 9.8 33.312 9.8C32.5867 9.8 32.0587 10.0453 31.728 10.536C31.408 11.0267 31.248 11.7307 31.248 12.648ZM49.2441 8.328V17H47.3881V12.264C47.3881 11.912 47.3935 11.5653 47.4041 11.224C47.4255 10.8827 47.4468 10.5573 47.4681 10.248H47.4201L44.8601 17H43.3081L40.7481 10.248H40.7001C40.7321 10.5573 40.7535 10.8827 40.7641 11.224C40.7748 11.5653 40.7801 11.9333 40.7801 12.328V17H38.9241V8.328H41.7241L44.1081 14.616L46.5081 8.328H49.2441ZM54.7344 17.16C53.913 17.16 53.1984 17.0053 52.5904 16.696C51.993 16.376 51.529 15.8907 51.1984 15.24C50.8784 14.5787 50.7184 13.736 50.7184 12.712C50.7184 11.6453 50.8944 10.7813 51.2464 10.12C51.609 9.448 52.105 8.95733 52.7344 8.648C53.3637 8.328 54.0837 8.168 54.8944 8.168C55.4384 8.168 55.9237 8.22133 56.3504 8.328C56.777 8.43467 57.1397 8.56267 57.4384 8.712L56.8464 10.296C56.5157 10.168 56.185 10.0613 55.8544 9.976C55.5237 9.88 55.2037 9.832 54.8944 9.832C54.4144 9.832 54.0144 9.93867 53.6944 10.152C53.385 10.3653 53.1557 10.6853 53.0064 11.112C52.857 11.528 52.7824 12.056 52.7824 12.696C52.7824 13.3147 52.857 13.832 53.0064 14.248C53.1664 14.664 53.401 14.9787 53.7104 15.192C54.0197 15.3947 54.4037 15.496 54.8624 15.496C55.353 15.496 55.785 15.4373 56.1584 15.32C56.5317 15.2027 56.8837 15.0427 57.2144 14.84V16.584C56.8837 16.7867 56.5264 16.9307 56.1424 17.016C55.769 17.112 55.2997 17.16 54.7344 17.16ZM64.118 8.328H66.342L62.806 12.488L66.646 17H64.342L60.662 12.6V17H58.646V8.328H60.662V12.536L64.118 8.328Z" fill="#646468"/>
<defs>
<clipPath id="clip0_1245_6243">
<rect width="16" height="16" fill="white" transform="translate(0 3)"/>
</clipPath>
</defs>
</svg>
