<svg width="65" height="65" viewBox="0 0 65 65" fill="none" xmlns="http://www.w3.org/2000/svg">
<path fill-rule="evenodd" clip-rule="evenodd" d="M32.5 9.375C25.7115 9.375 20.2083 14.8782 20.2083 21.6667C20.2083 22.357 19.6487 22.9167 18.9583 22.9167C18.268 22.9167 17.7083 22.357 17.7083 21.6667C17.7083 13.4975 24.3308 6.875 32.5 6.875C37.9766 6.875 42.7565 9.85195 45.3121 14.2699C45.6578 14.8675 45.4535 15.6322 44.856 15.9778C44.2584 16.3235 43.4937 16.1193 43.148 15.5217C41.0209 11.8445 37.0481 9.375 32.5 9.375Z" fill="white"/>
<path fill-rule="evenodd" clip-rule="evenodd" d="M18.9583 17.5C13.6656 17.5 9.375 21.7906 9.375 27.0833C9.375 32.376 13.6656 36.6667 18.9583 36.6667C19.6487 36.6667 20.2083 37.2263 20.2083 37.9167C20.2083 38.607 19.6487 39.1667 18.9583 39.1667C12.2849 39.1667 6.875 33.7567 6.875 27.0833C6.875 20.4099 12.2849 15 18.9583 15C19.6487 15 20.2083 15.5596 20.2083 16.25C20.2083 16.9404 19.6487 17.5 18.9583 17.5Z" fill="white"/>
<path fill-rule="evenodd" clip-rule="evenodd" d="M38.0487 18.0212C40.1779 16.1418 42.9781 15 46.0416 15C52.7149 15 58.1249 20.4099 58.1249 27.0833C58.1249 33.7567 52.7149 39.1667 46.0416 39.1667C45.3512 39.1667 44.7916 38.607 44.7916 37.9167C44.7916 37.2263 45.3512 36.6667 46.0416 36.6667C51.3342 36.6667 55.6249 32.376 55.6249 27.0833C55.6249 21.7906 51.3342 17.5 46.0416 17.5C43.6104 17.5 41.3931 18.4038 39.7031 19.8955C39.1855 20.3523 38.3956 20.3031 37.9387 19.7855C37.4819 19.2679 37.5311 18.478 38.0487 18.0212Z" fill="white"/>
<path fill-rule="evenodd" clip-rule="evenodd" d="M16.25 36.6667C16.9404 36.6667 17.5 37.2263 17.5 37.9167V54.4306C17.5 55.0902 18.0348 55.625 18.6944 55.625H46.3056C46.9652 55.625 47.5 55.0902 47.5 54.4306V37.9167C47.5 37.2263 48.0596 36.6667 48.75 36.6667C49.4404 36.6667 50 37.2263 50 37.9167V54.4306C50 56.4709 48.3459 58.125 46.3056 58.125H18.6944C16.6541 58.125 15 56.4709 15 54.4306V37.9167C15 37.2263 15.5596 36.6667 16.25 36.6667Z" fill="white"/>
<path fill-rule="evenodd" clip-rule="evenodd" d="M15 46.0417C15 45.3513 15.5596 44.7917 16.25 44.7917H48.75C49.4404 44.7917 50 45.3513 50 46.0417C50 46.732 49.4404 47.2917 48.75 47.2917H16.25C15.5596 47.2917 15 46.732 15 46.0417Z" fill="white"/>
</svg>
