<svg width="100" height="101" viewBox="0 0 100 101" fill="none" xmlns="http://www.w3.org/2000/svg">
<g opacity="0.1">
<path d="M71.4948 27.6918C69.2807 28.1838 64.8231 30.0239 64.705 33.4483C64.6254 35.7584 64.6308 51.5438 64.6579 66.5115H84.1888V34.734C84.1888 24.7181 77.1611 21.7719 73.6472 21.5508H41.3838V27.6918H71.4948Z" fill="#659D2E"/>
<path d="M58.1639 91.7261C53.3226 91.9622 28.2988 91.8245 16.3922 91.7261C14.129 90.6928 9.69115 87.0913 10.0454 80.951H19.1967V74.8127C28.1245 74.7849 47.1801 74.746 51.9803 74.8127C56.7806 74.8794 58.1029 78.2851 58.1639 79.9797V91.7261Z" fill="#659D2E"/>
</g>
<circle cx="41.3836" cy="51.0029" r="13.1033" fill="#EB8E22"/>
<path d="M31.3674 71.4941C31.3674 70.7761 31.9495 70.1941 32.6674 70.1941H48.9457C49.6637 70.1941 50.2457 70.7761 50.2457 71.4941C50.2457 72.2121 49.6637 72.7941 48.9457 72.7941H32.6674C31.9495 72.7941 31.3674 72.2121 31.3674 71.4941Z" fill="#659D2E"/>
<path d="M47.0076 49.0603C47.5153 48.5526 47.5153 47.7295 47.0076 47.2218C46.5 46.7141 45.6768 46.7141 45.1692 47.2218L39.9697 52.4213L37.5986 50.0502C37.091 49.5425 36.2678 49.5425 35.7602 50.0502C35.2525 50.5579 35.2525 51.381 35.7602 51.8887L39.0505 55.179C39.5581 55.6867 40.3813 55.6867 40.8889 55.179L47.0076 49.0603Z" fill="#659D2E"/>
<path fill-rule="evenodd" clip-rule="evenodd" d="M52.7728 9.53153C53.2054 9.18302 53.8117 9.14793 54.2816 9.44421L60.3366 13.2616L65.6791 9.48257C66.1203 9.17047 66.7087 9.16392 67.1567 9.46612L72.7401 13.2318L77.7576 9.50071C78.2089 9.1651 78.8249 9.15778 79.284 9.48257L84.6266 13.2616L90.6815 9.44421C91.082 9.19169 91.5882 9.17691 92.0028 9.40564C92.4174 9.63436 92.6748 10.0704 92.6748 10.5439V61.3195C92.6748 61.4102 92.6653 61.5006 92.6465 61.5893C92.2096 63.649 89.951 67.4726 84.5689 67.3428H66.3565C66.3693 74.0997 66.3862 80.6033 66.4013 85.5225C66.4015 85.5884 66.3967 85.6542 66.3869 85.7193C66.0451 87.998 63.9487 92.7452 58.2273 93.0243C53.3377 93.2628 28.259 93.1239 16.3814 93.0258C16.1987 93.0243 16.0184 92.9843 15.8522 92.9084C13.3084 91.7471 8.35108 87.7476 8.74753 80.8759C8.7872 80.1881 9.35648 79.6508 10.0454 79.6508H17.8967V32.9796C17.8967 32.9135 17.9017 32.8474 17.9118 32.782C18.0851 31.655 18.6175 29.9998 19.6908 28.5932C20.7916 27.1507 22.5093 25.9232 24.9531 25.9232H40.48V10.5439C40.48 10.0657 40.7426 9.62609 41.1636 9.39934C41.5847 9.17259 42.0962 9.1953 42.4955 9.45847L48.1979 13.217L52.7728 9.53153ZM43.08 25.9232H71.891C71.9673 25.9232 72.0435 25.9299 72.1186 25.9432C73.356 26.1632 75.1988 26.7403 76.7689 27.7982C78.3429 28.8587 79.8333 30.5473 79.8333 32.9796V61.2721C79.8745 61.7631 80.1311 62.5958 80.8124 63.3143C81.4779 64.0161 82.6276 64.6922 84.6184 64.7432C88.3102 64.8379 89.7569 62.4018 90.0748 61.1698V12.9003L85.2784 15.9242C84.8336 16.2047 84.2636 16.1895 83.8343 15.8859L78.5524 12.1497L73.5525 15.8677C73.1097 16.197 72.5073 16.2109 72.0499 15.9023L66.4474 12.1238L61.1288 15.8859C60.6995 16.1895 60.1296 16.2047 59.6848 15.9242L53.6806 12.1389L49.0901 15.8369C48.65 16.1915 48.0311 16.221 47.5592 15.91L43.08 12.9577V25.9232ZM11.3445 82.2508C11.6185 86.7249 14.819 89.4721 16.6943 90.4282C26.2912 90.5067 43.8598 90.6068 53.0112 90.527C52.4474 89.8104 52.011 88.9962 51.6818 88.1628C50.916 86.2245 50.648 84.0305 50.6296 82.2508H11.3445ZM58.1327 90.4257C56.1142 90.413 54.8745 89.1682 54.0999 87.2075C53.3074 85.2015 53.1467 82.7175 53.2617 81.0396C53.2863 80.6802 53.1607 80.3268 52.9148 80.0635C52.669 79.8002 52.3249 79.6508 51.9647 79.6508H20.4967V33.085C20.6341 32.2926 21.0297 31.1246 21.7578 30.1705C22.4873 29.2144 23.5002 28.5232 24.9531 28.5232H66.1838C64.9378 29.5622 63.8682 31.0167 63.8021 32.9348C63.7213 35.2761 63.7271 51.1 63.7541 66.0452C63.7671 73.2167 63.785 80.2006 63.801 85.4249C63.5127 87.1025 61.9988 90.2203 58.1327 90.4257ZM71.9184 28.5529C72.8853 28.7578 74.2186 29.215 75.3161 29.9544C76.5096 30.7586 77.2333 31.7514 77.2333 32.9796V61.3195C77.2333 61.3474 77.2342 61.3753 77.236 61.4032C77.2966 62.3418 77.6864 63.6114 78.6087 64.7428H66.3518C66.3268 50.1537 66.3242 35.2378 66.4005 33.0244C66.4386 31.92 67.1785 30.9296 68.4378 30.0791C69.5753 29.3108 70.9375 28.8014 71.9184 28.5529Z" fill="#659D2E"/>
</svg>
