<svg width="101" height="101" viewBox="0 0 101 101" fill="none" xmlns="http://www.w3.org/2000/svg">
<path d="M16.2482 28.4583H64.0061V85.0289C64.0061 87.9008 61.678 90.229 58.8061 90.229H21.4482C18.5764 90.229 16.2482 87.9008 16.2482 85.029V28.4583Z" stroke="#659D2E" stroke-width="2.6" stroke-linejoin="round"/>
<mask id="path-2-outside-1_1323_3631" maskUnits="userSpaceOnUse" x="42.7173" y="43.5127" width="48" height="45" fill="black">
<rect fill="white" x="42.7173" y="43.5127" width="48" height="45"/>
<path fill-rule="evenodd" clip-rule="evenodd" d="M52.2173 46.5127C48.6274 46.5127 45.7173 49.4228 45.7173 53.0127V73.4264C45.7173 77.015 48.6254 79.9244 52.2135 79.9264V85.5392L61.635 79.9264H80.9522C84.542 79.9264 87.4522 77.0163 87.4522 73.4264V53.0127C87.4522 49.4228 84.542 46.5127 80.9522 46.5127H52.2173Z"/>
</mask>
<path d="M52.2135 79.9264H54.8135C54.8135 78.4911 53.6503 77.3273 52.215 77.3264L52.2135 79.9264ZM52.2135 85.5392H49.6135C49.6135 86.4745 50.1158 87.3377 50.9289 87.7998C51.742 88.2618 52.7407 88.2516 53.5441 87.7729L52.2135 85.5392ZM61.635 79.9264V77.3264C61.1665 77.3264 60.7068 77.453 60.3043 77.6928L61.635 79.9264ZM48.3173 53.0127C48.3173 50.8588 50.0634 49.1127 52.2173 49.1127V43.9127C47.1915 43.9127 43.1173 47.9869 43.1173 53.0127H48.3173ZM48.3173 73.4264V53.0127H43.1173V73.4264H48.3173ZM52.215 77.3264C50.0621 77.3252 48.3173 75.5796 48.3173 73.4264H43.1173C43.1173 78.4504 47.1886 82.5235 52.212 82.5264L52.215 77.3264ZM54.8135 85.5392V79.9264H49.6135V85.5392H54.8135ZM60.3043 77.6928L50.8828 83.3056L53.5441 87.7729L62.9657 82.1601L60.3043 77.6928ZM80.9522 77.3264H61.635V82.5264H80.9522V77.3264ZM84.8522 73.4264C84.8522 75.5804 83.1061 77.3264 80.9522 77.3264V82.5264C85.978 82.5264 90.0522 78.4522 90.0522 73.4264H84.8522ZM84.8522 53.0127V73.4264H90.0522V53.0127H84.8522ZM80.9522 49.1127C83.1061 49.1127 84.8522 50.8588 84.8522 53.0127H90.0522C90.0522 47.9869 85.978 43.9127 80.9522 43.9127V49.1127ZM52.2173 49.1127H80.9522V43.9127H52.2173V49.1127Z" fill="#659D2E" mask="url(#path-2-outside-1_1323_3631)"/>
<path d="M62.2164 69.1367C56.6528 62.5616 54.4475 51.6654 55.0394 46.5129H52.2441C48.6543 46.5129 45.7441 49.4231 45.7441 53.0129V73.3939C45.7441 76.993 48.685 79.8984 52.2838 79.8546V85.7046L61.6479 79.9341H79.961C77.5588 79.5859 67.8216 75.761 62.2164 69.1367Z" fill="#A7E56D" fill-opacity="0.1"/>
<path d="M26.5737 37.8553V24.4216C26.5737 16.9382 32.6402 10.8718 40.1235 10.8718V10.8718C47.6069 10.8718 53.6733 16.9382 53.6733 24.4216V37.8553" stroke="#659D2E" stroke-width="2.6" stroke-linejoin="round"/>
<path d="M77.5376 17.3537C75.4283 15.4925 74.849 12.7523 74.823 11.6148C74.7971 12.7523 74.218 15.4925 72.1087 17.3537C69.9994 19.215 67.6108 19.6803 66.6802 19.6803C67.6108 19.6803 69.9997 20.1456 72.109 22.0069C74.2183 23.8681 74.7974 26.6083 74.8234 27.7458C74.8493 26.6083 75.4286 23.8681 77.5379 22.0069C79.6472 20.1456 82.0355 19.6803 82.9661 19.6803C82.0355 19.6803 79.6469 19.215 77.5376 17.3537Z" stroke="#659D2E" stroke-width="2.6" stroke-linejoin="round"/>
<path d="M66.2643 55.9474C66.4195 55.7246 66.7492 55.7246 66.9043 55.9474L69.4909 59.6608C69.541 59.7327 69.6139 59.7857 69.6978 59.8111L74.0288 61.1235C74.2886 61.2023 74.3905 61.5158 74.2265 61.7323L71.4941 65.3397C71.4412 65.4096 71.4133 65.4953 71.4151 65.583L71.5053 70.1075C71.5107 70.379 71.244 70.5727 70.9875 70.4837L66.7122 68.9998C66.6294 68.9711 66.5393 68.9711 66.4564 68.9998L62.1812 70.4837C61.9247 70.5727 61.658 70.379 61.6634 70.1075L61.7536 65.583C61.7553 65.4953 61.7275 65.4096 61.6745 65.3397L58.9421 61.7323C58.7782 61.5158 58.8801 61.2023 59.1399 61.1235L63.4709 59.8111C63.5548 59.7857 63.6277 59.7327 63.6778 59.6608L66.2643 55.9474Z" fill="#EB8E22"/>
<path opacity="0.2" fill-rule="evenodd" clip-rule="evenodd" d="M62.788 46.5127V41.7277H45.7163C42.1265 41.7277 39.2163 44.6379 39.2163 48.2277V75.5937C39.2163 79.1835 42.1265 82.0937 45.7163 82.0937H47.064V88.8745L58.4462 82.0937H62.788V79.9264H61.635L52.2135 85.5392V79.9264C48.6254 79.9244 45.7173 77.015 45.7173 73.4264V53.0127C45.7173 49.4228 48.6274 46.5127 52.2173 46.5127H62.788Z" fill="#A7E56D"/>
</svg>
