<svg width="101" height="101" viewBox="0 0 101 101" fill="none" xmlns="http://www.w3.org/2000/svg">
<path opacity="0.1" d="M63.4059 55.5492C70.6594 55.5492 76.5499 59.5774 78.8617 61.1956V60.216C78.8617 57.3442 81.1898 55.016 84.0617 55.016H84.6277V42.0363C81.2106 45.1436 70.0179 51.449 52.5835 51.8122C35.1492 52.1754 22.1115 46.41 17.772 43.4819V57.9072C19.2959 58.2324 19.8865 58.5975 19.9914 58.7394L33.0296 70.5293C32.9834 69.4659 32.9186 66.6733 33.0296 64.0102C33.1406 61.347 36.1273 60.4038 37.6069 60.2651H50.7838C54.1127 60.2651 56.608 55.5492 63.4059 55.5492Z" fill="#A7E56D"/>
<path d="M43.8071 34.5797V14.5519H58.5928V34.5797C58.5928 37.4516 56.2647 39.7797 53.3928 39.7797H49.0071C46.1352 39.7797 43.8071 37.4516 43.8071 34.5797Z" fill="#EB8E22"/>
<path fill-rule="evenodd" clip-rule="evenodd" d="M16.0532 17.1518C16.0532 14.9979 17.7992 13.2518 19.9532 13.2518H81.6089C83.7628 13.2518 85.5089 14.9979 85.5089 17.1518V54.1915H86.3186C89.9085 54.1915 92.8186 57.1017 92.8186 60.6915V82.0616C92.8186 85.6514 89.9085 88.5616 86.3186 88.5616H83.6429C81.3983 88.5616 79.4195 87.4239 78.2516 85.6938C76.5664 85.6252 75.3093 85.9483 73.5791 86.4961C73.3462 86.5699 73.1057 86.6474 72.8557 86.7279C71.1795 87.268 69.0784 87.945 66.0233 88.5378C63.4165 89.0436 58.1193 89.1759 52.4186 89.1436C46.6618 89.111 40.3333 88.9072 35.5636 88.7008C33.2926 88.6025 31.1572 87.6437 29.5628 86.0372C25.9507 82.3977 21.3005 77.702 17.4825 73.8232C15.5737 71.884 13.8713 70.1474 12.61 68.8484C11.9797 68.1993 11.457 67.6568 11.0729 67.252C10.7201 66.8802 10.4174 66.5558 10.2932 66.3927C9.59596 65.4775 9.49546 64.1559 9.63648 63.0215C9.78625 61.8168 10.2444 60.4902 11.0358 59.344C11.845 58.172 13.2242 57.6282 14.3365 57.3632C14.9235 57.2234 15.5145 57.1427 16.0532 57.1028V17.1518ZM17.1825 59.676C16.6252 59.6538 15.762 59.6964 14.939 59.8924C14.0198 60.1114 13.4284 60.4547 13.1753 60.8213C12.6388 61.5984 12.3186 62.5221 12.2166 63.3423C12.1059 64.2328 12.2802 64.7106 12.3613 64.817C12.3595 64.8146 12.3609 64.8162 12.3663 64.8224C12.3808 64.8392 12.4245 64.8896 12.5144 64.9877C12.6231 65.1063 12.7718 65.2651 12.959 65.4624C13.3328 65.8564 13.8474 66.3905 14.4753 67.0372C15.7304 68.3297 17.4279 70.0614 19.3354 71.9992C23.1499 75.8744 27.7972 80.5673 31.4082 84.2057C32.5488 85.3549 34.0682 86.0336 35.6761 86.1032C40.4261 86.3088 46.7199 86.5113 52.4333 86.5437C58.2027 86.5764 63.2236 86.4325 65.5281 85.9854C68.4223 85.4238 70.3843 84.7921 72.0525 84.2549C72.3058 84.1734 72.5523 84.094 72.7942 84.0174C74.2753 83.5485 75.6155 83.1731 77.2251 83.0984C77.171 82.7607 77.1429 82.4144 77.1429 82.0616V62.3516C74.5714 60.5897 69.3023 57.3247 62.9871 57.3247C59.9326 57.3247 57.8536 58.3686 56.0633 59.4856C55.7786 59.6632 55.4824 59.8556 55.1825 60.0504C54.5847 60.4387 53.9726 60.8362 53.4095 61.1443C52.518 61.6319 51.512 62.0406 50.365 62.0406H37.2532C36.6608 62.1047 35.7834 62.33 35.0711 62.7715C34.3636 63.2099 33.9417 63.77 33.9097 64.5398C33.8313 66.4195 33.8422 68.3704 33.8713 69.7048H57.9937C58.7117 69.7048 59.2937 70.2868 59.2937 71.0048C59.2937 71.7227 58.7117 72.3048 57.9937 72.3048H32.1102L18.67 60.1514C18.6349 60.132 18.5753 60.1018 18.4854 60.0635C18.242 59.9598 17.8274 59.8186 17.1825 59.676ZM31.2501 68.0217L20.4965 58.2977C20.351 58.1442 20.194 58.0372 20.0895 57.9713C19.9233 57.8664 19.7273 57.7665 19.5046 57.6715C19.2689 57.5712 18.9873 57.4696 18.6532 57.3702V30.8321H82.9089V54.2325C80.1182 54.5461 77.8622 56.6267 77.2859 59.3292C74.2596 57.4108 69.0994 54.7247 62.9871 54.7247C59.2437 54.7247 56.676 56.0388 54.687 57.2797C54.3004 57.5209 53.9584 57.7437 53.6415 57.95C53.1078 58.2976 52.6454 58.5987 52.1618 58.8632C51.4366 59.2599 50.8824 59.4406 50.365 59.4406H37.1272L37.0667 59.4463C36.1793 59.5295 34.8572 59.8451 33.7013 60.5615C32.5178 61.2951 31.3908 62.5382 31.3119 64.4315C31.2607 65.6613 31.2462 66.9161 31.2501 68.0217ZM79.7429 61.6897C79.743 61.678 79.743 61.6664 79.7429 61.6548V60.6915C79.7429 58.5376 81.4889 56.7915 83.6429 56.7915H86.3186C88.4725 56.7915 90.2186 58.5376 90.2186 60.6915V82.0616C90.2186 84.2155 88.4725 85.9616 86.3186 85.9616H83.6429C81.4889 85.9616 79.7429 84.2155 79.7429 82.0616V61.6897ZM82.9089 28.2321V17.1518C82.9089 16.4339 82.3269 15.8518 81.6089 15.8518H19.9532C19.2352 15.8518 18.6532 16.4339 18.6532 17.1518V28.2321H82.9089Z" fill="#659D2E"/>
</svg>
