<svg width="101" height="101" viewBox="0 0 101 101" fill="none" xmlns="http://www.w3.org/2000/svg">
<path opacity="0.1" d="M28.4497 52.7327C23.5721 35.7769 31.4681 21.5961 36.3928 16.5127H17.7925C14.2026 16.5127 11.2925 19.4228 11.2925 23.0127V78.7702C11.2925 83.078 14.7847 86.5702 19.0925 86.5702H57.6799C50.2135 82.281 35.1217 75.9265 28.4497 52.7327Z" fill="#A7E56D" fill-opacity="0.1"/>
<path d="M20.6499 26.5004H42.7499V23.9004H20.6499V26.5004Z" fill="#659D2E"/>
<path d="M63.5499 26.5004H65.4999V23.9004H63.5499V26.5004Z" fill="#659D2E"/>
<path d="M71.9999 26.5004H73.9499V23.9004H71.9999V26.5004Z" fill="#659D2E"/>
<path d="M79.7999 26.5004H81.7499V23.9004H79.7999V26.5004Z" fill="#659D2E"/>
<path fill-rule="evenodd" clip-rule="evenodd" d="M71.9999 80.4504H29.7499V77.8504H31.7012C31.8098 74.3872 32.7427 69.7948 35.2693 65.8549C38.027 61.5548 42.6479 58.1016 49.8999 57.733V54.4504H52.4999V57.7331C59.7447 58.1023 64.2719 61.5609 66.9027 65.8805C69.2987 69.8147 70.0866 74.3925 70.0898 77.8504H71.9999V80.4504ZM67.4901 77.8504C67.4874 74.7576 66.7753 70.6698 64.6821 67.2329C62.3535 63.4095 58.2714 60.3004 51.1999 60.3004C44.1248 60.3004 39.9232 63.4143 37.458 67.2585C35.2573 70.69 34.4111 74.7629 34.3024 77.8504H67.4901Z" fill="#659D2E"/>
<path fill-rule="evenodd" clip-rule="evenodd" d="M10.9335 21.2859C10.9113 21.5044 10.8999 21.7261 10.8999 21.9504V80.4504C10.8999 84.0403 13.81 86.9504 17.3999 86.9504H84.9999C88.5898 86.9504 91.4999 84.0403 91.4999 80.4504L91.5 21.9504C91.5 18.3606 88.5898 15.4504 84.9999 15.4504H17.3999C14.0344 15.4504 11.2663 18.0082 10.9335 21.2859ZM17.3999 18.0504C15.5152 18.0504 13.9428 19.3873 13.5791 21.1645C13.5272 21.4183 13.4999 21.6812 13.4999 21.9504V29.827H88.8999V21.9504C88.8999 20.4234 88.0223 19.1013 86.7439 18.4611C86.2191 18.1983 85.6267 18.0504 84.9999 18.0504H17.3999ZM88.8999 80.4504V32.427H13.4999V80.4504C13.4999 82.6043 15.246 84.3504 17.3999 84.3504H84.9999C87.1538 84.3504 88.8999 82.6043 88.8999 80.4504Z" fill="#659D2E"/>
<path d="M31.2756 47.465C31.4308 47.2422 31.7605 47.2422 31.9157 47.465L33.555 49.8186C33.6052 49.8906 33.678 49.9435 33.762 49.969L36.507 50.8008C36.7668 50.8795 36.8687 51.1931 36.7048 51.4095L34.9729 53.6959C34.92 53.7658 34.8921 53.8515 34.8939 53.9392L34.951 56.8069C34.9564 57.0783 34.6897 57.2721 34.4332 57.1831L31.7235 56.2426C31.6407 56.2138 31.5506 56.2138 31.4678 56.2426L28.7581 57.1831C28.5016 57.2721 28.2349 57.0783 28.2403 56.8069L28.2974 53.9392C28.2992 53.8515 28.2713 53.7658 28.2184 53.6959L26.4866 51.4095C26.3226 51.1931 26.4245 50.8795 26.6843 50.8008L29.4294 49.969C29.5133 49.9435 29.5862 49.8906 29.6363 49.8186L31.2756 47.465Z" fill="#EB8E22"/>
<path d="M50.8801 39.3893C51.0353 39.1665 51.365 39.1665 51.5202 39.3893L53.1595 41.7429C53.2096 41.8149 53.2825 41.8678 53.3664 41.8933L56.1115 42.7251C56.3713 42.8038 56.4732 43.1174 56.3092 43.3338L54.5774 45.6202C54.5245 45.6901 54.4966 45.7758 54.4984 45.8635L54.5555 48.7312C54.5609 49.0027 54.2942 49.1964 54.0377 49.1074L51.328 48.1669C51.2452 48.1381 51.1551 48.1381 51.0723 48.1669L48.3626 49.1074C48.1061 49.1964 47.8394 49.0027 47.8448 48.7312L47.9019 45.8635C47.9037 45.7758 47.8758 45.6901 47.8229 45.6202L46.0911 43.3338C45.9271 43.1174 46.029 42.8038 46.2888 42.7251L49.0338 41.8933C49.1178 41.8678 49.1906 41.8149 49.2408 41.7429L50.8801 39.3893Z" fill="#EB8E22"/>
<path d="M70.4846 47.465C70.6398 47.2422 70.9695 47.2422 71.1247 47.465L72.764 49.8186C72.8141 49.8906 72.887 49.9435 72.9709 49.969L75.716 50.8008C75.9758 50.8795 76.0777 51.1931 75.9137 51.4095L74.1819 53.6959C74.129 53.7658 74.1011 53.8515 74.1029 53.9392L74.16 56.8069C74.1654 57.0783 73.8987 57.2721 73.6422 57.1831L70.9325 56.2426C70.8497 56.2138 70.7596 56.2138 70.6768 56.2426L67.9671 57.1831C67.7106 57.2721 67.4439 57.0783 67.4493 56.8069L67.5064 53.9392C67.5082 53.8515 67.4803 53.7658 67.4274 53.6959L65.6955 51.4095C65.5316 51.1931 65.6335 50.8795 65.8933 50.8008L68.6383 49.969C68.7222 49.9435 68.7951 49.8906 68.8453 49.8186L70.4846 47.465Z" fill="#EB8E22"/>
</svg>
