<svg width="100" height="100" viewBox="0 0 100 100" fill="none" xmlns="http://www.w3.org/2000/svg">
<path fill-rule="evenodd" clip-rule="evenodd" d="M64.9311 8.60086C66.1282 8.79106 67.2304 9.24864 68.0634 9.7029C69.0016 10.2146 69.6026 11.053 69.9557 11.8802L72.2184 17.1817C72.3883 16.9292 72.5733 16.6799 72.7737 16.4392C73.7637 15.2507 75.2564 14.1356 77.2618 14.1356C80.3174 14.1356 83.3977 15.4431 84.3245 18.3452C84.4655 18.7866 84.4901 19.2112 84.4901 19.5411V56.8355C84.4901 56.8841 84.4874 56.9325 84.482 56.9808L80.7368 90.2915H83.1901C83.9081 90.2915 84.4901 90.8735 84.4901 91.5915C84.4901 92.3094 83.9081 92.8915 83.1901 92.8915H37.0131C36.2951 92.8915 35.7131 92.3094 35.7131 91.5915C35.7131 90.8735 36.2951 90.2915 37.0131 90.2915H40.2823C39.9303 89.6718 39.562 89.0007 39.2126 88.3282C38.4563 86.8724 37.6916 85.2304 37.4765 84.1013C37.3226 83.2933 37.3185 82.4651 37.3142 81.5923C37.3027 79.2806 37.2897 76.6557 34.4879 73.2641C31.5694 69.7312 28.0173 64.6375 26.0459 61.7036C25.4201 60.7723 24.9061 59.3362 25.575 57.9285C26.153 56.7121 27.2112 55.4708 28.8915 54.597C28.7735 54.5371 28.6568 54.4765 28.5416 54.4157C26.1523 53.153 25.5277 50.2675 26.6065 48.0283L31.5866 37.6909C32.2423 36.3298 33.4576 35.3212 34.9161 34.9275L49.1504 31.0851L42.7358 21.7708C42.3473 21.2067 41.9015 20.3432 42.0326 19.3157C42.2079 17.9409 42.983 16.0737 45.0031 14.4278C47.5878 12.3218 50.9278 13.127 52.6543 13.8672C53.4459 14.2066 54.0278 14.7846 54.4421 15.3637L59.0935 21.8656C58.1474 19.0048 57.3187 16.5002 57.1008 15.8467C56.6923 14.6214 56.8875 13.3502 57.6125 12.1903C58.3141 11.0678 59.4956 10.064 61.0751 9.18652C62.3517 8.47728 63.731 8.41016 64.9311 8.60086ZM64.1806 28.971L79.7762 50.0389L70.9253 20.7753L67.5644 12.9009C67.3699 12.4451 67.1049 12.1417 66.8185 11.9855C66.1653 11.6293 65.348 11.2997 64.5231 11.1687C63.7015 11.0381 62.9565 11.1156 62.3378 11.4593C60.9802 12.2135 60.2036 12.9503 59.8173 13.5683C59.4544 14.1489 59.4319 14.6182 59.5674 15.0245C59.9964 16.3115 62.7799 24.7323 64.1806 28.971ZM73.511 20.3435L81.8901 48.047V19.5411C81.8901 19.3299 81.8714 19.2102 81.8478 19.1362C81.4184 17.7916 79.7879 16.7356 77.2618 16.7356C76.3084 16.7356 75.4804 17.2522 74.7715 18.1032C74.1717 18.8234 73.7473 19.6839 73.511 20.3435ZM73.8921 46.46L61.9668 30.3503L61.9543 30.3333L52.3275 16.8765C52.0963 16.5533 51.8578 16.3546 51.6298 16.2568C50.1223 15.6105 48.0466 15.3018 46.6454 16.4434C45.1444 17.6665 44.703 18.9289 44.6117 19.6446C44.6005 19.7327 44.6278 19.934 44.8772 20.2961L51.886 30.4733L53.6526 30.2525C55.1749 30.0622 56.7035 30.5538 57.8294 31.5958L73.8921 46.46ZM51.5146 33.14L35.5937 37.4376C34.8644 37.6345 34.2568 38.1388 33.929 38.8193L28.9489 49.1567C28.3806 50.3363 28.7907 51.6066 29.7564 52.1169C30.6229 52.5748 31.5192 52.9759 32.3302 53.2236C32.6955 53.3351 33.0126 53.4057 33.2818 53.4436C33.5763 53.4228 33.88 53.4102 34.1932 53.4063C34.322 53.3471 34.5398 53.2091 34.8423 52.916C35.2178 52.5522 35.6295 52.0421 36.0583 51.4175C36.9143 50.1706 37.747 48.6023 38.413 47.1872C39.1775 45.5627 40.6938 44.3355 42.5468 44.0754L50.7227 42.928C52.3865 42.6945 54.0715 43.2775 55.2231 44.5212C56.5916 45.9993 58.2371 47.8196 59.5909 49.4146C60.2667 50.2107 60.8806 50.9634 61.3541 51.5959C61.5904 51.9116 61.8015 52.2102 61.9707 52.4776C62.1266 52.7237 62.2974 53.0207 62.3954 53.3147C62.7445 54.3612 62.9629 56.3716 62.623 58.4998C62.2793 60.6517 61.3317 63.1222 59.1425 64.8606C57.1828 66.4167 54.9283 67.6239 52.6402 68.0692C50.3231 68.5202 47.9373 68.1893 45.8987 66.6109C44.9698 65.8918 43.9342 64.8571 42.8905 63.7598C42.3786 63.2215 41.8897 62.6954 41.3988 62.1674C40.8247 61.5496 40.248 60.9291 39.6286 60.2829C38.5258 59.1321 37.4596 58.0852 36.4783 57.2967C35.5823 56.5767 34.8819 56.1769 34.3797 56.032C34.0058 56.0873 33.6205 56.0896 33.2359 56.0549C29.8601 56.3553 28.4451 57.9463 27.9234 59.0443C27.8177 59.2668 27.8231 59.6867 28.204 60.2535C30.1659 63.1733 33.6595 68.1788 36.4924 71.6082C39.9758 75.8249 39.9704 79.8632 39.9673 82.1715C39.9665 82.7841 39.9659 83.2748 40.0306 83.6148C40.1636 84.3131 40.7406 85.6297 41.5198 87.1296C42.115 88.2751 42.7718 89.4233 43.2917 90.2915H78.1204L81.8248 57.3433L56.0635 33.504C55.5005 32.9831 54.7362 32.7373 53.9751 32.8324L51.5146 33.14ZM36.9811 54.4451C37.3672 54.6975 37.744 54.9784 38.1068 55.2699C39.2242 56.1677 40.3849 57.3143 41.5058 58.4839C42.0957 59.0994 42.7287 59.7797 43.3411 60.4378C43.8447 60.979 44.3343 61.5051 44.7745 61.9679C45.817 63.0639 46.7332 63.9689 47.4903 64.5551C48.8237 65.5874 50.4084 65.8548 52.1435 65.5171C53.9074 65.1738 55.7867 64.2054 57.5257 62.8245C59.0351 61.6258 59.7737 59.8539 60.0555 58.0897C60.341 56.3018 60.1242 54.7225 59.929 54.1373C59.9304 54.1416 59.93 54.1408 59.9269 54.1343C59.9164 54.1127 59.876 54.0295 59.7739 53.8683C59.6544 53.6794 59.4869 53.4402 59.2727 53.154C58.8451 52.5828 58.2697 51.8758 57.6087 51.0971C56.2891 49.5424 54.6717 47.7527 53.3153 46.2877C52.7522 45.6795 51.9195 45.3855 51.0841 45.5027L42.9082 46.6502C41.9977 46.778 41.1892 47.3939 40.7655 48.2943C40.0696 49.7729 39.1689 51.4803 38.2019 52.889C37.8173 53.4492 37.4076 53.9837 36.9811 54.4451Z" fill="#659D2E"/>
<path d="M24.5536 19.9386C24.9363 19.2966 25.8624 19.2859 26.2597 19.919L28.6282 23.6934C28.7078 23.8204 28.8151 23.9278 28.9419 24.0078L32.7674 26.4195C33.398 26.8171 33.3875 27.7401 32.748 28.1232L28.9612 30.3922C28.822 30.4756 28.7052 30.5916 28.6208 30.7303L26.2292 34.6616C25.8434 35.2957 24.9255 35.3033 24.5293 34.6757L22.0294 30.716C21.9476 30.5865 21.8373 30.4775 21.7068 30.3975L18.0294 28.141C17.3928 27.7504 17.3935 26.8251 18.0308 26.4355L21.99 24.0152C22.1285 23.9306 22.2443 23.8134 22.3274 23.674L24.5536 19.9386Z" fill="#EB8E22"/>
<path d="M17.2865 45.4494C17.6692 44.8073 18.5953 44.7967 18.9926 45.4298L20.1635 47.2957C20.2432 47.4227 20.3504 47.5301 20.4772 47.6101L22.3792 48.8091C23.0098 49.2067 22.9993 50.1297 22.3598 50.5129L20.4965 51.6293C20.3573 51.7128 20.2405 51.8288 20.1561 51.9674L18.9621 53.9301C18.5763 54.5643 17.6585 54.5719 17.2622 53.9442L16.0051 51.9531C15.9234 51.8237 15.813 51.7147 15.6825 51.6346L13.8834 50.5307C13.2468 50.14 13.2475 49.2147 13.8848 48.8251L15.8603 47.6175C15.9988 47.5329 16.1146 47.4157 16.1977 47.2763L17.2865 45.4494Z" fill="#EB8E22"/>
</svg>
