<svg width="101" height="101" viewBox="0 0 101 101" fill="none" xmlns="http://www.w3.org/2000/svg">
<path d="M60.0762 16.6393L50.8374 25.8781C49.969 26.7464 49.8137 28.1491 50.812 28.8642C53.7934 31 59.2928 31.2696 63.2374 26.7022C66.0739 23.4178 65.086 19.5564 63.5726 16.9137C62.8387 15.6322 61.1204 15.5951 60.0762 16.6393Z" fill="#EB8E22"/>
<path d="M22.5585 57.0813L17.0355 62.1156C15.3913 63.6143 15.3319 66.1825 16.905 67.7556L18.6169 69.4675H30.6191L32.7261 65.119C33.4986 63.5248 33.0995 61.6102 31.7545 60.4573L27.7238 57.0025C26.229 55.7212 24.0136 55.755 22.5585 57.0813Z" fill="#EB8E22"/>
<path opacity="0.1" d="M19.3384 87.6717C10.349 87.8992 5.63608 76.3875 4.40332 70.6032H18.2255C18.435 75.0414 20.5283 84.6472 27.2256 87.5644C24.2305 87.5829 21.5084 87.6168 19.3384 87.6717Z" fill="#A7E56D"/>
<path fill-rule="evenodd" clip-rule="evenodd" d="M59.1573 15.7201C60.656 14.2214 63.4409 14.0673 64.7011 16.2677C66.3218 19.0978 67.5976 23.643 64.2216 27.552C59.8175 32.6515 53.5579 32.4302 50.0553 29.9211C49.1603 29.28 48.7877 28.3104 48.8262 27.3752C48.8634 26.4721 49.2746 25.6028 49.9185 24.9589L59.1573 15.7201ZM61.8636 17.2021C61.5935 17.186 61.2627 17.2917 60.9958 17.5586L51.757 26.7974C51.5326 27.0218 51.432 27.288 51.424 27.4822C51.4173 27.6441 51.4661 27.7334 51.5694 27.8074C54.0297 29.5699 58.7689 29.8878 62.2539 25.8526C64.551 23.1927 63.8509 20.015 62.4448 17.5598C62.3126 17.3288 62.1125 17.217 61.8636 17.2021Z" fill="#659D2E"/>
<path fill-rule="evenodd" clip-rule="evenodd" d="M25.5578 16.4898C25.9885 17.0642 25.8721 17.879 25.2978 18.3098C24.9086 18.6017 24.3822 19.3154 23.8454 20.2795C23.6032 20.7148 23.3806 21.1606 23.1894 21.572C24.1949 22.0907 24.9734 22.7877 25.5493 23.6333C26.3402 24.7943 26.6818 26.1365 26.817 27.4541C26.9517 28.7683 26.8887 30.148 26.8024 31.4295C26.7818 31.7349 26.76 32.0332 26.7388 32.3247C26.6681 33.295 26.6029 34.1909 26.6029 35.033C26.6029 35.9728 27.2299 37.2814 28.4557 38.8082C29.6364 40.2786 31.1955 41.7359 32.6593 42.9374C33.5193 43.6434 33.7964 44.7218 33.5552 45.6484C33.3063 46.6046 32.4843 47.434 31.2741 47.4828C21.8351 47.8636 13.2123 42.1099 12.6218 33.2549C12.3093 28.5698 13.5349 25.4011 15.4527 23.4295C17.023 21.815 18.9603 21.1072 20.6026 20.9836C20.8616 20.3915 21.195 19.6952 21.5737 19.015C22.1214 18.0311 22.8707 16.8801 23.7378 16.2298C24.3121 15.799 25.127 15.9154 25.5578 16.4898ZM21.2399 23.565C20.1328 23.5337 18.5675 23.9561 17.3165 25.2423C16.0365 26.5582 14.9394 28.9344 15.216 33.0819C15.6788 40.0219 22.5212 45.1378 30.9436 44.8927C29.4205 43.6372 27.7434 42.0738 26.4284 40.436C25.1395 38.8308 24.0029 36.9178 24.0029 35.033C24.0029 34.0866 24.0778 33.0612 24.15 32.0731L24.1501 32.0718C24.1702 31.7956 24.1902 31.5224 24.2082 31.2546C24.2936 29.9876 24.3411 28.7973 24.2305 27.7194C24.1203 26.6449 23.8609 25.7729 23.4005 25.0969C22.9765 24.4746 22.3225 23.9297 21.2399 23.565Z" fill="#659D2E"/>
<path d="M39.4495 32.5701C38.832 32.2038 38.0345 32.4074 37.6682 33.0249C37.3019 33.6424 37.5056 34.4399 38.1231 34.8062L41.0674 36.5528C41.6849 36.9191 42.4824 36.7154 42.8487 36.0979C43.215 35.4804 43.0114 34.6829 42.3939 34.3166L39.4495 32.5701Z" fill="#659D2E"/>
<path d="M7.11353 51.7877C6.53618 51.3609 6.41413 50.5469 6.84092 49.9695L8.87594 47.2166C9.30273 46.6393 10.1167 46.5172 10.6941 46.944C11.2714 47.3708 11.3935 48.1848 10.9667 48.7622L8.93168 51.5151C8.50489 52.0924 7.69088 52.2145 7.11353 51.7877Z" fill="#659D2E"/>
<path fill-rule="evenodd" clip-rule="evenodd" d="M63.0606 43.7904C60.8577 40.7402 57.8593 39.7002 54.8853 39.8552C51.9835 40.0065 49.1287 41.2834 46.9398 42.7948C46.4199 43.1538 45.994 43.5987 45.7293 44.146C45.4593 44.7044 45.3976 45.2863 45.4817 45.8398C45.6395 46.8786 46.3032 47.7897 46.9603 48.4916C47.4857 49.0527 47.7224 49.8397 47.6458 50.5329C47.5721 51.2008 47.2343 51.6736 46.688 51.8815C44.093 52.8687 43.2399 56.1163 45.0149 58.2514L46.685 60.2604C48.5974 62.5607 52.0516 62.7772 54.2361 60.7336L54.4664 60.5181C55.4273 59.6192 57.0686 59.6332 58.7721 60.5379C59.5622 60.9575 60.5186 61.2845 61.5616 61.23C62.6405 61.1737 63.6779 60.7156 64.5944 59.7991C66.709 57.6844 67.3162 54.9838 66.8861 52.181C66.4632 49.4254 65.0419 46.5336 63.0606 43.7904ZM48.4171 44.9343C50.35 43.5997 52.7457 42.5703 55.0207 42.4517C57.2235 42.3368 59.3284 43.0633 60.9529 45.3126C62.799 47.8689 63.9784 50.3748 64.3161 52.5753C64.6466 54.7285 64.1742 56.5423 62.7559 57.9607C62.2523 58.4642 61.8068 58.6137 61.426 58.6336C61.0093 58.6553 60.5291 58.5272 59.9916 58.2417C57.9034 57.1327 54.8646 56.5853 52.6902 58.6194L52.4599 58.8348C51.3676 59.8567 49.6406 59.7484 48.6844 58.5982L47.0143 56.5893C46.3796 55.8258 46.6846 54.6646 47.6125 54.3115C49.2353 53.6942 50.0701 52.2673 50.2301 50.8183C50.3873 49.3946 49.919 47.8474 48.8582 46.7145C48.3048 46.1235 48.0892 45.6928 48.0522 45.4494C48.0389 45.3617 48.0509 45.3174 48.07 45.2779C48.0945 45.2274 48.173 45.1028 48.4171 44.9343Z" fill="#659D2E"/>
<path fill-rule="evenodd" clip-rule="evenodd" d="M71.1737 75.4896C70.1882 79.0728 68.2023 82.5784 65.5834 85.2694C62.8042 88.1252 59.0927 90.2717 54.8984 90.2717L54.868 90.2715C46.7523 90.1767 28.3379 90.0448 19.4046 90.2709C13.6376 90.4168 9.50048 86.7639 6.81997 82.8648C4.12279 78.9414 2.52824 74.2766 1.86084 71.1451C1.69729 70.3777 1.88907 69.5774 2.38271 68.9675C2.87636 68.3575 3.61906 68.0032 4.40373 68.0032H15.4181C13.9259 65.9017 14.1886 62.9518 16.1599 61.1549L21.683 56.1206C23.623 54.3522 26.5769 54.3071 28.57 56.0155L32.6007 59.4703C34.3941 61.0075 34.9262 63.5603 33.8962 65.6859L32.7735 68.0032H69.2645C70.7005 68.0032 71.8645 69.1672 71.8645 70.6032C71.8645 71.3627 71.8103 72.1272 71.7077 72.8896H75.3357C75.9328 70.0971 78.4145 68.0032 81.3852 68.0032H94.0851C97.6814 68.0032 100.597 70.9185 100.597 74.5147C100.597 78.111 97.6814 81.0263 94.0851 81.0263H82.0356C78.7043 81.0263 75.9295 78.6437 75.3223 75.4896H71.1737ZM69.0804 72.8896C69.064 72.994 69.0466 73.0985 69.0281 73.2032C68.97 73.5314 68.9017 73.8605 68.8234 74.1896C68.7239 74.6079 68.6083 75.0263 68.4775 75.4431C66.5023 81.7363 61.0511 87.6717 54.8984 87.6717C46.7908 87.5769 28.3283 87.4442 19.3388 87.6717C11.5575 87.8686 6.98047 79.2696 5.09124 73.2032C4.79793 72.2613 4.56941 71.3805 4.40373 70.6032H69.2645C69.2645 71.3525 69.2014 72.1181 69.0804 72.8896ZM29.8843 68.0032L31.5564 64.5522C32.0714 63.4894 31.8054 62.213 30.9087 61.4444L26.878 57.9896C25.8814 57.1354 24.4045 57.158 23.4345 58.0421L17.9114 63.0764C16.8153 64.0756 16.7757 65.7877 17.8244 66.8364L18.9911 68.0032H29.8843ZM77.9972 75.4745C78.5414 77.1862 80.1437 78.4263 82.0356 78.4263H94.0851C96.2454 78.4263 97.9967 76.675 97.9967 74.5147C97.9967 72.3544 96.2454 70.6032 94.0851 70.6032H81.3852C79.855 70.6032 78.5487 71.5615 78.0336 72.9107C77.8819 73.3079 77.7988 73.7391 77.7988 74.1896C77.7988 74.6375 77.8684 75.0693 77.9972 75.4745Z" fill="#659D2E"/>
</svg>
