<svg width="28" height="19" viewBox="0 0 28 19" fill="none" xmlns="http://www.w3.org/2000/svg">
<path fill-rule="evenodd" clip-rule="evenodd" d="M26.9748 4.07143C26.9748 3.12143 26.4294 2.30714 25.8839 1.35714C25.2021 0.678571 24.2476 0.271428 23.1566 0.271428C19.4748 -2.62899e-07 13.7476 0 13.7476 0C13.7476 0 8.02029 -2.62899e-07 4.2021 0.271428C3.24756 0.271428 2.29301 0.678571 1.47483 1.49286C1.06574 2.30714 0.65665 3.12143 0.520286 4.20714L0.247559 8.41428V10.45C0.247559 11.9429 0.247559 13.4357 0.520286 14.9286C0.520286 15.8786 1.06574 16.6929 1.61119 17.6429C2.42938 18.3214 3.52029 18.7286 4.6112 18.7286L13.7476 19C13.7476 19 19.4748 19 23.293 18.7286C24.2476 18.7286 25.2021 18.3214 26.0203 17.5071C26.4294 16.8286 26.8385 15.8786 26.9748 14.7929L27.2476 10.5857V8.41428C27.2476 7.05714 27.2476 5.56429 26.9748 4.07143ZM11.0203 13.0286V5.42857L18.3839 9.22857L11.0203 13.0286Z" fill="#659D2E"/>
</svg>
